<svg width="947.498" height="1167.8" xmlns="http://www.w3.org/2000/svg">
<polygon points="947.498,594.791 787.483,945.767 498.448,961.85 587.119,1095.9 250.003,1167.8 526.67,877.541 249.203,745.053 550.98,298.915 0,338.315 333.265,197.059 349.628,225.227 796.101,0 840.423,403.09 794.109,505.366 604.647,634.696 " style="fill:yellow; stroke:black; stroke-width:1" /><g>
<line x1="0" y1="0" x2="0" y2="1167.8" stroke="red" />
<line x1="947.498" y1="594.791" x2="787.483" y2="945.767" stroke="green" />
<line x1="787.483" y1="945.767" x2="498.448" y2="961.85" stroke="green" />
<line x1="498.448" y1="961.85" x2="587.119" y2="1095.9" stroke="green" />
<line x1="587.119" y1="1095.9" x2="250.003" y2="1167.8" stroke="green" />
<line x1="250.003" y1="1167.8" x2="526.67" y2="877.541" stroke="green" />
<line x1="526.67" y1="877.541" x2="249.203" y2="745.053" stroke="green" />
<line x1="249.203" y1="745.053" x2="550.98" y2="298.915" stroke="green" />
<line x1="550.98" y1="298.915" x2="0" y2="338.315" stroke="green" />
<line x1="0" y1="338.315" x2="333.265" y2="197.059" stroke="green" />
<line x1="333.265" y1="197.059" x2="349.628" y2="225.227" stroke="green" />
<line x1="349.628" y1="225.227" x2="796.101" y2="0" stroke="green" />
<line x1="796.101" y1="0" x2="840.423" y2="403.09" stroke="green" />
<line x1="840.423" y1="403.09" x2="794.109" y2="505.366" stroke="green" />
<line x1="794.109" y1="505.366" x2="604.647" y2="634.696" stroke="green" />
<line x1="604.647" y1="634.696" x2="947.498" y2="594.791" stroke="green" />
<circle cx="0" cy="338.315" r="15" />
<circle cx="0" cy="338.315" r="15" />
<line x1="47.3749" y1="0" x2="47.3749" y2="1167.8" stroke="red" />
<line x1="947.498" y1="594.791" x2="787.483" y2="945.767" stroke="green" />
<line x1="787.483" y1="945.767" x2="498.448" y2="961.85" stroke="green" />
<line x1="498.448" y1="961.85" x2="587.119" y2="1095.9" stroke="green" />
<line x1="587.119" y1="1095.9" x2="250.003" y2="1167.8" stroke="green" />
<line x1="250.003" y1="1167.8" x2="526.67" y2="877.541" stroke="green" />
<line x1="526.67" y1="877.541" x2="249.203" y2="745.053" stroke="green" />
<line x1="249.203" y1="745.053" x2="550.98" y2="298.915" stroke="green" />
<line x1="550.98" y1="298.915" x2="0" y2="338.315" stroke="green" />
<line x1="0" y1="338.315" x2="333.265" y2="197.059" stroke="green" />
<line x1="333.265" y1="197.059" x2="349.628" y2="225.227" stroke="green" />
<line x1="349.628" y1="225.227" x2="796.101" y2="0" stroke="green" />
<line x1="796.101" y1="0" x2="840.423" y2="403.09" stroke="green" />
<line x1="840.423" y1="403.09" x2="794.109" y2="505.366" stroke="green" />
<line x1="794.109" y1="505.366" x2="604.647" y2="634.696" stroke="green" />
<line x1="604.647" y1="634.696" x2="947.498" y2="594.791" stroke="green" />
<circle cx="47.3749" cy="334.927" r="15" />
<circle cx="47.3749" cy="318.235" r="15" />
<line x1="94.7498" y1="0" x2="94.7498" y2="1167.8" stroke="red" />
<line x1="947.498" y1="594.791" x2="787.483" y2="945.767" stroke="green" />
<line x1="787.483" y1="945.767" x2="498.448" y2="961.85" stroke="green" />
<line x1="498.448" y1="961.85" x2="587.119" y2="1095.9" stroke="green" />
<line x1="587.119" y1="1095.9" x2="250.003" y2="1167.8" stroke="green" />
<line x1="250.003" y1="1167.8" x2="526.67" y2="877.541" stroke="green" />
<line x1="526.67" y1="877.541" x2="249.203" y2="745.053" stroke="green" />
<line x1="249.203" y1="745.053" x2="550.98" y2="298.915" stroke="green" />
<line x1="550.98" y1="298.915" x2="0" y2="338.315" stroke="green" />
<line x1="0" y1="338.315" x2="333.265" y2="197.059" stroke="green" />
<line x1="333.265" y1="197.059" x2="349.628" y2="225.227" stroke="green" />
<line x1="349.628" y1="225.227" x2="796.101" y2="0" stroke="green" />
<line x1="796.101" y1="0" x2="840.423" y2="403.09" stroke="green" />
<line x1="840.423" y1="403.09" x2="794.109" y2="505.366" stroke="green" />
<line x1="794.109" y1="505.366" x2="604.647" y2="634.696" stroke="green" />
<line x1="604.647" y1="634.696" x2="947.498" y2="594.791" stroke="green" />
<circle cx="94.7498" cy="331.539" r="15" />
<circle cx="94.7498" cy="298.155" r="15" />
<line x1="142.125" y1="0" x2="142.125" y2="1167.8" stroke="red" />
<line x1="947.498" y1="594.791" x2="787.483" y2="945.767" stroke="green" />
<line x1="787.483" y1="945.767" x2="498.448" y2="961.85" stroke="green" />
<line x1="498.448" y1="961.85" x2="587.119" y2="1095.9" stroke="green" />
<line x1="587.119" y1="1095.9" x2="250.003" y2="1167.8" stroke="green" />
<line x1="250.003" y1="1167.8" x2="526.67" y2="877.541" stroke="green" />
<line x1="526.67" y1="877.541" x2="249.203" y2="745.053" stroke="green" />
<line x1="249.203" y1="745.053" x2="550.98" y2="298.915" stroke="green" />
<line x1="550.98" y1="298.915" x2="0" y2="338.315" stroke="green" />
<line x1="0" y1="338.315" x2="333.265" y2="197.059" stroke="green" />
<line x1="333.265" y1="197.059" x2="349.628" y2="225.227" stroke="green" />
<line x1="349.628" y1="225.227" x2="796.101" y2="0" stroke="green" />
<line x1="796.101" y1="0" x2="840.423" y2="403.09" stroke="green" />
<line x1="840.423" y1="403.09" x2="794.109" y2="505.366" stroke="green" />
<line x1="794.109" y1="505.366" x2="604.647" y2="634.696" stroke="green" />
<line x1="604.647" y1="634.696" x2="947.498" y2="594.791" stroke="green" />
<circle cx="142.125" cy="328.152" r="15" />
<circle cx="142.125" cy="278.074" r="15" />
<line x1="189.5" y1="0" x2="189.5" y2="1167.8" stroke="red" />
<line x1="947.498" y1="594.791" x2="787.483" y2="945.767" stroke="green" />
<line x1="787.483" y1="945.767" x2="498.448" y2="961.85" stroke="green" />
<line x1="498.448" y1="961.85" x2="587.119" y2="1095.9" stroke="green" />
<line x1="587.119" y1="1095.9" x2="250.003" y2="1167.8" stroke="green" />
<line x1="250.003" y1="1167.8" x2="526.67" y2="877.541" stroke="green" />
<line x1="526.67" y1="877.541" x2="249.203" y2="745.053" stroke="green" />
<line x1="249.203" y1="745.053" x2="550.98" y2="298.915" stroke="green" />
<line x1="550.98" y1="298.915" x2="0" y2="338.315" stroke="green" />
<line x1="0" y1="338.315" x2="333.265" y2="197.059" stroke="green" />
<line x1="333.265" y1="197.059" x2="349.628" y2="225.227" stroke="green" />
<line x1="349.628" y1="225.227" x2="796.101" y2="0" stroke="green" />
<line x1="796.101" y1="0" x2="840.423" y2="403.09" stroke="green" />
<line x1="840.423" y1="403.09" x2="794.109" y2="505.366" stroke="green" />
<line x1="794.109" y1="505.366" x2="604.647" y2="634.696" stroke="green" />
<line x1="604.647" y1="634.696" x2="947.498" y2="594.791" stroke="green" />
<circle cx="189.5" cy="324.764" r="15" />
<circle cx="189.5" cy="257.994" r="15" />
<line x1="236.874" y1="0" x2="236.874" y2="1167.8" stroke="red" />
<line x1="947.498" y1="594.791" x2="787.483" y2="945.767" stroke="green" />
<line x1="787.483" y1="945.767" x2="498.448" y2="961.85" stroke="green" />
<line x1="498.448" y1="961.85" x2="587.119" y2="1095.9" stroke="green" />
<line x1="587.119" y1="1095.9" x2="250.003" y2="1167.8" stroke="green" />
<line x1="250.003" y1="1167.8" x2="526.67" y2="877.541" stroke="green" />
<line x1="526.67" y1="877.541" x2="249.203" y2="745.053" stroke="green" />
<line x1="249.203" y1="745.053" x2="550.98" y2="298.915" stroke="green" />
<line x1="550.98" y1="298.915" x2="0" y2="338.315" stroke="green" />
<line x1="0" y1="338.315" x2="333.265" y2="197.059" stroke="green" />
<line x1="333.265" y1="197.059" x2="349.628" y2="225.227" stroke="green" />
<line x1="349.628" y1="225.227" x2="796.101" y2="0" stroke="green" />
<line x1="796.101" y1="0" x2="840.423" y2="403.09" stroke="green" />
<line x1="840.423" y1="403.09" x2="794.109" y2="505.366" stroke="green" />
<line x1="794.109" y1="505.366" x2="604.647" y2="634.696" stroke="green" />
<line x1="604.647" y1="634.696" x2="947.498" y2="594.791" stroke="green" />
<circle cx="236.874" cy="321.376" r="15" />
<circle cx="236.874" cy="237.914" r="15" />
<line x1="284.249" y1="0" x2="284.249" y2="1167.8" stroke="red" />
<line x1="947.498" y1="594.791" x2="787.483" y2="945.767" stroke="green" />
<line x1="787.483" y1="945.767" x2="498.448" y2="961.85" stroke="green" />
<line x1="498.448" y1="961.85" x2="587.119" y2="1095.9" stroke="green" />
<line x1="587.119" y1="1095.9" x2="250.003" y2="1167.8" stroke="green" />
<line x1="250.003" y1="1167.8" x2="526.67" y2="877.541" stroke="green" />
<line x1="526.67" y1="877.541" x2="249.203" y2="745.053" stroke="green" />
<line x1="249.203" y1="745.053" x2="550.98" y2="298.915" stroke="green" />
<line x1="550.98" y1="298.915" x2="0" y2="338.315" stroke="green" />
<line x1="0" y1="338.315" x2="333.265" y2="197.059" stroke="green" />
<line x1="333.265" y1="197.059" x2="349.628" y2="225.227" stroke="green" />
<line x1="349.628" y1="225.227" x2="796.101" y2="0" stroke="green" />
<line x1="796.101" y1="0" x2="840.423" y2="403.09" stroke="green" />
<line x1="840.423" y1="403.09" x2="794.109" y2="505.366" stroke="green" />
<line x1="794.109" y1="505.366" x2="604.647" y2="634.696" stroke="green" />
<line x1="604.647" y1="634.696" x2="947.498" y2="594.791" stroke="green" />
<circle cx="284.249" cy="1160.5" r="15" />
<circle cx="284.249" cy="1131.87" r="15" />
<circle cx="284.249" cy="761.787" r="15" />
<circle cx="284.249" cy="693.242" r="15" />
<circle cx="284.249" cy="317.988" r="15" />
<circle cx="284.249" cy="217.834" r="15" />
<line x1="331.624" y1="0" x2="331.624" y2="1167.8" stroke="red" />
<line x1="947.498" y1="594.791" x2="787.483" y2="945.767" stroke="green" />
<line x1="787.483" y1="945.767" x2="498.448" y2="961.85" stroke="green" />
<line x1="498.448" y1="961.85" x2="587.119" y2="1095.9" stroke="green" />
<line x1="587.119" y1="1095.9" x2="250.003" y2="1167.8" stroke="green" />
<line x1="250.003" y1="1167.8" x2="526.67" y2="877.541" stroke="green" />
<line x1="526.67" y1="877.541" x2="249.203" y2="745.053" stroke="green" />
<line x1="249.203" y1="745.053" x2="550.98" y2="298.915" stroke="green" />
<line x1="550.98" y1="298.915" x2="0" y2="338.315" stroke="green" />
<line x1="0" y1="338.315" x2="333.265" y2="197.059" stroke="green" />
<line x1="333.265" y1="197.059" x2="349.628" y2="225.227" stroke="green" />
<line x1="349.628" y1="225.227" x2="796.101" y2="0" stroke="green" />
<line x1="796.101" y1="0" x2="840.423" y2="403.09" stroke="green" />
<line x1="840.423" y1="403.09" x2="794.109" y2="505.366" stroke="green" />
<line x1="794.109" y1="505.366" x2="604.647" y2="634.696" stroke="green" />
<line x1="604.647" y1="634.696" x2="947.498" y2="594.791" stroke="green" />
<circle cx="331.624" cy="1150.39" r="15" />
<circle cx="331.624" cy="1082.17" r="15" />
<circle cx="331.624" cy="784.409" r="15" />
<circle cx="331.624" cy="623.204" r="15" />
<circle cx="331.624" cy="314.601" r="15" />
<circle cx="331.624" cy="197.754" r="15" />
<line x1="378.999" y1="0" x2="378.999" y2="1167.8" stroke="red" />
<line x1="947.498" y1="594.791" x2="787.483" y2="945.767" stroke="green" />
<line x1="787.483" y1="945.767" x2="498.448" y2="961.85" stroke="green" />
<line x1="498.448" y1="961.85" x2="587.119" y2="1095.9" stroke="green" />
<line x1="587.119" y1="1095.9" x2="250.003" y2="1167.8" stroke="green" />
<line x1="250.003" y1="1167.8" x2="526.67" y2="877.541" stroke="green" />
<line x1="526.67" y1="877.541" x2="249.203" y2="745.053" stroke="green" />
<line x1="249.203" y1="745.053" x2="550.98" y2="298.915" stroke="green" />
<line x1="550.98" y1="298.915" x2="0" y2="338.315" stroke="green" />
<line x1="0" y1="338.315" x2="333.265" y2="197.059" stroke="green" />
<line x1="333.265" y1="197.059" x2="349.628" y2="225.227" stroke="green" />
<line x1="349.628" y1="225.227" x2="796.101" y2="0" stroke="green" />
<line x1="796.101" y1="0" x2="840.423" y2="403.09" stroke="green" />
<line x1="840.423" y1="403.09" x2="794.109" y2="505.366" stroke="green" />
<line x1="794.109" y1="505.366" x2="604.647" y2="634.696" stroke="green" />
<line x1="604.647" y1="634.696" x2="947.498" y2="594.791" stroke="green" />
<circle cx="378.999" cy="1140.29" r="15" />
<circle cx="378.999" cy="1032.47" r="15" />
<circle cx="378.999" cy="807.03" r="15" />
<circle cx="378.999" cy="553.167" r="15" />
<circle cx="378.999" cy="311.213" r="15" />
<circle cx="378.999" cy="210.41" r="15" />
<line x1="426.374" y1="0" x2="426.374" y2="1167.8" stroke="red" />
<line x1="947.498" y1="594.791" x2="787.483" y2="945.767" stroke="green" />
<line x1="787.483" y1="945.767" x2="498.448" y2="961.85" stroke="green" />
<line x1="498.448" y1="961.85" x2="587.119" y2="1095.9" stroke="green" />
<line x1="587.119" y1="1095.9" x2="250.003" y2="1167.8" stroke="green" />
<line x1="250.003" y1="1167.8" x2="526.67" y2="877.541" stroke="green" />
<line x1="526.67" y1="877.541" x2="249.203" y2="745.053" stroke="green" />
<line x1="249.203" y1="745.053" x2="550.98" y2="298.915" stroke="green" />
<line x1="550.98" y1="298.915" x2="0" y2="338.315" stroke="green" />
<line x1="0" y1="338.315" x2="333.265" y2="197.059" stroke="green" />
<line x1="333.265" y1="197.059" x2="349.628" y2="225.227" stroke="green" />
<line x1="349.628" y1="225.227" x2="796.101" y2="0" stroke="green" />
<line x1="796.101" y1="0" x2="840.423" y2="403.09" stroke="green" />
<line x1="840.423" y1="403.09" x2="794.109" y2="505.366" stroke="green" />
<line x1="794.109" y1="505.366" x2="604.647" y2="634.696" stroke="green" />
<line x1="604.647" y1="634.696" x2="947.498" y2="594.791" stroke="green" />
<circle cx="426.374" cy="1130.19" r="15" />
<circle cx="426.374" cy="982.765" r="15" />
<circle cx="426.374" cy="829.651" r="15" />
<circle cx="426.374" cy="483.129" r="15" />
<circle cx="426.374" cy="307.825" r="15" />
<circle cx="426.374" cy="186.512" r="15" />
<line x1="473.749" y1="0" x2="473.749" y2="1167.8" stroke="red" />
<line x1="947.498" y1="594.791" x2="787.483" y2="945.767" stroke="green" />
<line x1="787.483" y1="945.767" x2="498.448" y2="961.85" stroke="green" />
<line x1="498.448" y1="961.85" x2="587.119" y2="1095.9" stroke="green" />
<line x1="587.119" y1="1095.9" x2="250.003" y2="1167.8" stroke="green" />
<line x1="250.003" y1="1167.8" x2="526.67" y2="877.541" stroke="green" />
<line x1="526.67" y1="877.541" x2="249.203" y2="745.053" stroke="green" />
<line x1="249.203" y1="745.053" x2="550.98" y2="298.915" stroke="green" />
<line x1="550.98" y1="298.915" x2="0" y2="338.315" stroke="green" />
<line x1="0" y1="338.315" x2="333.265" y2="197.059" stroke="green" />
<line x1="333.265" y1="197.059" x2="349.628" y2="225.227" stroke="green" />
<line x1="349.628" y1="225.227" x2="796.101" y2="0" stroke="green" />
<line x1="796.101" y1="0" x2="840.423" y2="403.09" stroke="green" />
<line x1="840.423" y1="403.09" x2="794.109" y2="505.366" stroke="green" />
<line x1="794.109" y1="505.366" x2="604.647" y2="634.696" stroke="green" />
<line x1="604.647" y1="634.696" x2="947.498" y2="594.791" stroke="green" />
<circle cx="473.749" cy="1120.08" r="15" />
<circle cx="473.749" cy="933.062" r="15" />
<circle cx="473.749" cy="852.272" r="15" />
<circle cx="473.749" cy="413.091" r="15" />
<circle cx="473.749" cy="304.438" r="15" />
<circle cx="473.749" cy="162.613" r="15" />
<line x1="521.124" y1="0" x2="521.124" y2="1167.8" stroke="red" />
<line x1="947.498" y1="594.791" x2="787.483" y2="945.767" stroke="green" />
<line x1="787.483" y1="945.767" x2="498.448" y2="961.85" stroke="green" />
<line x1="498.448" y1="961.85" x2="587.119" y2="1095.9" stroke="green" />
<line x1="587.119" y1="1095.9" x2="250.003" y2="1167.8" stroke="green" />
<line x1="250.003" y1="1167.8" x2="526.67" y2="877.541" stroke="green" />
<line x1="526.67" y1="877.541" x2="249.203" y2="745.053" stroke="green" />
<line x1="249.203" y1="745.053" x2="550.98" y2="298.915" stroke="green" />
<line x1="550.98" y1="298.915" x2="0" y2="338.315" stroke="green" />
<line x1="0" y1="338.315" x2="333.265" y2="197.059" stroke="green" />
<line x1="333.265" y1="197.059" x2="349.628" y2="225.227" stroke="green" />
<line x1="349.628" y1="225.227" x2="796.101" y2="0" stroke="green" />
<line x1="796.101" y1="0" x2="840.423" y2="403.09" stroke="green" />
<line x1="840.423" y1="403.09" x2="794.109" y2="505.366" stroke="green" />
<line x1="794.109" y1="505.366" x2="604.647" y2="634.696" stroke="green" />
<line x1="604.647" y1="634.696" x2="947.498" y2="594.791" stroke="green" />
<circle cx="521.124" cy="960.588" r="15" />
<circle cx="521.124" cy="996.132" r="15" />
<circle cx="521.124" cy="1109.98" r="15" />
<circle cx="521.124" cy="883.36" r="15" />
<circle cx="521.124" cy="874.893" r="15" />
<circle cx="521.124" cy="343.054" r="15" />
<circle cx="521.124" cy="301.05" r="15" />
<circle cx="521.124" cy="138.714" r="15" />
<line x1="568.499" y1="0" x2="568.499" y2="1167.8" stroke="red" />
<line x1="947.498" y1="594.791" x2="787.483" y2="945.767" stroke="green" />
<line x1="787.483" y1="945.767" x2="498.448" y2="961.85" stroke="green" />
<line x1="498.448" y1="961.85" x2="587.119" y2="1095.9" stroke="green" />
<line x1="587.119" y1="1095.9" x2="250.003" y2="1167.8" stroke="green" />
<line x1="250.003" y1="1167.8" x2="526.67" y2="877.541" stroke="green" />
<line x1="526.67" y1="877.541" x2="249.203" y2="745.053" stroke="green" />
<line x1="249.203" y1="745.053" x2="550.98" y2="298.915" stroke="green" />
<line x1="550.98" y1="298.915" x2="0" y2="338.315" stroke="green" />
<line x1="0" y1="338.315" x2="333.265" y2="197.059" stroke="green" />
<line x1="333.265" y1="197.059" x2="349.628" y2="225.227" stroke="green" />
<line x1="349.628" y1="225.227" x2="796.101" y2="0" stroke="green" />
<line x1="796.101" y1="0" x2="840.423" y2="403.09" stroke="green" />
<line x1="840.423" y1="403.09" x2="794.109" y2="505.366" stroke="green" />
<line x1="794.109" y1="505.366" x2="604.647" y2="634.696" stroke="green" />
<line x1="604.647" y1="634.696" x2="947.498" y2="594.791" stroke="green" />
<circle cx="568.499" cy="957.952" r="15" />
<circle cx="568.499" cy="1067.75" r="15" />
<circle cx="568.499" cy="1099.87" r="15" />
<circle cx="568.499" cy="114.816" r="15" />
<line x1="615.874" y1="0" x2="615.874" y2="1167.8" stroke="red" />
<line x1="947.498" y1="594.791" x2="787.483" y2="945.767" stroke="green" />
<line x1="787.483" y1="945.767" x2="498.448" y2="961.85" stroke="green" />
<line x1="498.448" y1="961.85" x2="587.119" y2="1095.9" stroke="green" />
<line x1="587.119" y1="1095.9" x2="250.003" y2="1167.8" stroke="green" />
<line x1="250.003" y1="1167.8" x2="526.67" y2="877.541" stroke="green" />
<line x1="526.67" y1="877.541" x2="249.203" y2="745.053" stroke="green" />
<line x1="249.203" y1="745.053" x2="550.98" y2="298.915" stroke="green" />
<line x1="550.98" y1="298.915" x2="0" y2="338.315" stroke="green" />
<line x1="0" y1="338.315" x2="333.265" y2="197.059" stroke="green" />
<line x1="333.265" y1="197.059" x2="349.628" y2="225.227" stroke="green" />
<line x1="349.628" y1="225.227" x2="796.101" y2="0" stroke="green" />
<line x1="796.101" y1="0" x2="840.423" y2="403.09" stroke="green" />
<line x1="840.423" y1="403.09" x2="794.109" y2="505.366" stroke="green" />
<line x1="794.109" y1="505.366" x2="604.647" y2="634.696" stroke="green" />
<line x1="604.647" y1="634.696" x2="947.498" y2="594.791" stroke="green" />
<circle cx="615.874" cy="955.316" r="15" />
<circle cx="615.874" cy="90.9171" r="15" />
<circle cx="615.874" cy="627.032" r="15" />
<circle cx="615.874" cy="633.389" r="15" />
<line x1="663.248" y1="0" x2="663.248" y2="1167.8" stroke="red" />
<line x1="947.498" y1="594.791" x2="787.483" y2="945.767" stroke="green" />
<line x1="787.483" y1="945.767" x2="498.448" y2="961.85" stroke="green" />
<line x1="498.448" y1="961.85" x2="587.119" y2="1095.9" stroke="green" />
<line x1="587.119" y1="1095.9" x2="250.003" y2="1167.8" stroke="green" />
<line x1="250.003" y1="1167.8" x2="526.67" y2="877.541" stroke="green" />
<line x1="526.67" y1="877.541" x2="249.203" y2="745.053" stroke="green" />
<line x1="249.203" y1="745.053" x2="550.98" y2="298.915" stroke="green" />
<line x1="550.98" y1="298.915" x2="0" y2="338.315" stroke="green" />
<line x1="0" y1="338.315" x2="333.265" y2="197.059" stroke="green" />
<line x1="333.265" y1="197.059" x2="349.628" y2="225.227" stroke="green" />
<line x1="349.628" y1="225.227" x2="796.101" y2="0" stroke="green" />
<line x1="796.101" y1="0" x2="840.423" y2="403.09" stroke="green" />
<line x1="840.423" y1="403.09" x2="794.109" y2="505.366" stroke="green" />
<line x1="794.109" y1="505.366" x2="604.647" y2="634.696" stroke="green" />
<line x1="604.647" y1="634.696" x2="947.498" y2="594.791" stroke="green" />
<circle cx="663.248" cy="952.68" r="15" />
<circle cx="663.248" cy="67.0185" r="15" />
<circle cx="663.248" cy="594.693" r="15" />
<circle cx="663.248" cy="627.875" r="15" />
<line x1="710.623" y1="0" x2="710.623" y2="1167.8" stroke="red" />
<line x1="947.498" y1="594.791" x2="787.483" y2="945.767" stroke="green" />
<line x1="787.483" y1="945.767" x2="498.448" y2="961.85" stroke="green" />
<line x1="498.448" y1="961.85" x2="587.119" y2="1095.9" stroke="green" />
<line x1="587.119" y1="1095.9" x2="250.003" y2="1167.8" stroke="green" />
<line x1="250.003" y1="1167.8" x2="526.67" y2="877.541" stroke="green" />
<line x1="526.67" y1="877.541" x2="249.203" y2="745.053" stroke="green" />
<line x1="249.203" y1="745.053" x2="550.98" y2="298.915" stroke="green" />
<line x1="550.98" y1="298.915" x2="0" y2="338.315" stroke="green" />
<line x1="0" y1="338.315" x2="333.265" y2="197.059" stroke="green" />
<line x1="333.265" y1="197.059" x2="349.628" y2="225.227" stroke="green" />
<line x1="349.628" y1="225.227" x2="796.101" y2="0" stroke="green" />
<line x1="796.101" y1="0" x2="840.423" y2="403.09" stroke="green" />
<line x1="840.423" y1="403.09" x2="794.109" y2="505.366" stroke="green" />
<line x1="794.109" y1="505.366" x2="604.647" y2="634.696" stroke="green" />
<line x1="604.647" y1="634.696" x2="947.498" y2="594.791" stroke="green" />
<circle cx="710.623" cy="950.043" r="15" />
<circle cx="710.623" cy="43.1199" r="15" />
<circle cx="710.623" cy="562.354" r="15" />
<circle cx="710.623" cy="622.361" r="15" />
<line x1="757.998" y1="0" x2="757.998" y2="1167.8" stroke="red" />
<line x1="947.498" y1="594.791" x2="787.483" y2="945.767" stroke="green" />
<line x1="787.483" y1="945.767" x2="498.448" y2="961.85" stroke="green" />
<line x1="498.448" y1="961.85" x2="587.119" y2="1095.9" stroke="green" />
<line x1="587.119" y1="1095.9" x2="250.003" y2="1167.8" stroke="green" />
<line x1="250.003" y1="1167.8" x2="526.67" y2="877.541" stroke="green" />
<line x1="526.67" y1="877.541" x2="249.203" y2="745.053" stroke="green" />
<line x1="249.203" y1="745.053" x2="550.98" y2="298.915" stroke="green" />
<line x1="550.98" y1="298.915" x2="0" y2="338.315" stroke="green" />
<line x1="0" y1="338.315" x2="333.265" y2="197.059" stroke="green" />
<line x1="333.265" y1="197.059" x2="349.628" y2="225.227" stroke="green" />
<line x1="349.628" y1="225.227" x2="796.101" y2="0" stroke="green" />
<line x1="796.101" y1="0" x2="840.423" y2="403.09" stroke="green" />
<line x1="840.423" y1="403.09" x2="794.109" y2="505.366" stroke="green" />
<line x1="794.109" y1="505.366" x2="604.647" y2="634.696" stroke="green" />
<line x1="604.647" y1="634.696" x2="947.498" y2="594.791" stroke="green" />
<circle cx="757.998" cy="947.407" r="15" />
<circle cx="757.998" cy="19.2212" r="15" />
<circle cx="757.998" cy="530.015" r="15" />
<circle cx="757.998" cy="616.847" r="15" />
<line x1="805.373" y1="0" x2="805.373" y2="1167.8" stroke="red" />
<line x1="947.498" y1="594.791" x2="787.483" y2="945.767" stroke="green" />
<line x1="787.483" y1="945.767" x2="498.448" y2="961.85" stroke="green" />
<line x1="498.448" y1="961.85" x2="587.119" y2="1095.9" stroke="green" />
<line x1="587.119" y1="1095.9" x2="250.003" y2="1167.8" stroke="green" />
<line x1="250.003" y1="1167.8" x2="526.67" y2="877.541" stroke="green" />
<line x1="526.67" y1="877.541" x2="249.203" y2="745.053" stroke="green" />
<line x1="249.203" y1="745.053" x2="550.98" y2="298.915" stroke="green" />
<line x1="550.98" y1="298.915" x2="0" y2="338.315" stroke="green" />
<line x1="0" y1="338.315" x2="333.265" y2="197.059" stroke="green" />
<line x1="333.265" y1="197.059" x2="349.628" y2="225.227" stroke="green" />
<line x1="349.628" y1="225.227" x2="796.101" y2="0" stroke="green" />
<line x1="796.101" y1="0" x2="840.423" y2="403.09" stroke="green" />
<line x1="840.423" y1="403.09" x2="794.109" y2="505.366" stroke="green" />
<line x1="794.109" y1="505.366" x2="604.647" y2="634.696" stroke="green" />
<line x1="604.647" y1="634.696" x2="947.498" y2="594.791" stroke="green" />
<circle cx="805.373" cy="906.527" r="15" />
<circle cx="805.373" cy="84.3269" r="15" />
<circle cx="805.373" cy="480.49" r="15" />
<circle cx="805.373" cy="611.333" r="15" />
<line x1="852.748" y1="0" x2="852.748" y2="1167.8" stroke="red" />
<line x1="947.498" y1="594.791" x2="787.483" y2="945.767" stroke="green" />
<line x1="787.483" y1="945.767" x2="498.448" y2="961.85" stroke="green" />
<line x1="498.448" y1="961.85" x2="587.119" y2="1095.9" stroke="green" />
<line x1="587.119" y1="1095.9" x2="250.003" y2="1167.8" stroke="green" />
<line x1="250.003" y1="1167.8" x2="526.67" y2="877.541" stroke="green" />
<line x1="526.67" y1="877.541" x2="249.203" y2="745.053" stroke="green" />
<line x1="249.203" y1="745.053" x2="550.98" y2="298.915" stroke="green" />
<line x1="550.98" y1="298.915" x2="0" y2="338.315" stroke="green" />
<line x1="0" y1="338.315" x2="333.265" y2="197.059" stroke="green" />
<line x1="333.265" y1="197.059" x2="349.628" y2="225.227" stroke="green" />
<line x1="349.628" y1="225.227" x2="796.101" y2="0" stroke="green" />
<line x1="796.101" y1="0" x2="840.423" y2="403.09" stroke="green" />
<line x1="840.423" y1="403.09" x2="794.109" y2="505.366" stroke="green" />
<line x1="794.109" y1="505.366" x2="604.647" y2="634.696" stroke="green" />
<line x1="604.647" y1="634.696" x2="947.498" y2="594.791" stroke="green" />
<circle cx="852.748" cy="802.615" r="15" />
<circle cx="852.748" cy="605.819" r="15" />
<line x1="900.123" y1="0" x2="900.123" y2="1167.8" stroke="red" />
<line x1="947.498" y1="594.791" x2="787.483" y2="945.767" stroke="green" />
<line x1="787.483" y1="945.767" x2="498.448" y2="961.85" stroke="green" />
<line x1="498.448" y1="961.85" x2="587.119" y2="1095.9" stroke="green" />
<line x1="587.119" y1="1095.9" x2="250.003" y2="1167.8" stroke="green" />
<line x1="250.003" y1="1167.8" x2="526.67" y2="877.541" stroke="green" />
<line x1="526.67" y1="877.541" x2="249.203" y2="745.053" stroke="green" />
<line x1="249.203" y1="745.053" x2="550.98" y2="298.915" stroke="green" />
<line x1="550.98" y1="298.915" x2="0" y2="338.315" stroke="green" />
<line x1="0" y1="338.315" x2="333.265" y2="197.059" stroke="green" />
<line x1="333.265" y1="197.059" x2="349.628" y2="225.227" stroke="green" />
<line x1="349.628" y1="225.227" x2="796.101" y2="0" stroke="green" />
<line x1="796.101" y1="0" x2="840.423" y2="403.09" stroke="green" />
<line x1="840.423" y1="403.09" x2="794.109" y2="505.366" stroke="green" />
<line x1="794.109" y1="505.366" x2="604.647" y2="634.696" stroke="green" />
<line x1="604.647" y1="634.696" x2="947.498" y2="594.791" stroke="green" />
<circle cx="900.123" cy="698.703" r="15" />
<circle cx="900.123" cy="600.305" r="15" />
<line x1="947.498" y1="0" x2="947.498" y2="1167.8" stroke="red" />
<line x1="947.498" y1="594.791" x2="787.483" y2="945.767" stroke="green" />
<line x1="787.483" y1="945.767" x2="498.448" y2="961.85" stroke="green" />
<line x1="498.448" y1="961.85" x2="587.119" y2="1095.9" stroke="green" />
<line x1="587.119" y1="1095.9" x2="250.003" y2="1167.8" stroke="green" />
<line x1="250.003" y1="1167.8" x2="526.67" y2="877.541" stroke="green" />
<line x1="526.67" y1="877.541" x2="249.203" y2="745.053" stroke="green" />
<line x1="249.203" y1="745.053" x2="550.98" y2="298.915" stroke="green" />
<line x1="550.98" y1="298.915" x2="0" y2="338.315" stroke="green" />
<line x1="0" y1="338.315" x2="333.265" y2="197.059" stroke="green" />
<line x1="333.265" y1="197.059" x2="349.628" y2="225.227" stroke="green" />
<line x1="349.628" y1="225.227" x2="796.101" y2="0" stroke="green" />
<line x1="796.101" y1="0" x2="840.423" y2="403.09" stroke="green" />
<line x1="840.423" y1="403.09" x2="794.109" y2="505.366" stroke="green" />
<line x1="794.109" y1="505.366" x2="604.647" y2="634.696" stroke="green" />
<line x1="604.647" y1="634.696" x2="947.498" y2="594.791" stroke="green" />
<circle cx="947.498" cy="594.791" r="15" />
<circle cx="947.498" cy="594.791" r="15" />
</g>
<g>
<line x1="0" y1="0" x2="947.498" y2="0" stroke="red" />
<line x1="947.498" y1="594.791" x2="787.483" y2="945.767" stroke="green" />
<line x1="787.483" y1="945.767" x2="498.448" y2="961.85" stroke="green" />
<line x1="498.448" y1="961.85" x2="587.119" y2="1095.9" stroke="green" />
<line x1="587.119" y1="1095.9" x2="250.003" y2="1167.8" stroke="green" />
<line x1="250.003" y1="1167.8" x2="526.67" y2="877.541" stroke="green" />
<line x1="526.67" y1="877.541" x2="249.203" y2="745.053" stroke="green" />
<line x1="249.203" y1="745.053" x2="550.98" y2="298.915" stroke="green" />
<line x1="550.98" y1="298.915" x2="0" y2="338.315" stroke="green" />
<line x1="0" y1="338.315" x2="333.265" y2="197.059" stroke="green" />
<line x1="333.265" y1="197.059" x2="349.628" y2="225.227" stroke="green" />
<line x1="349.628" y1="225.227" x2="796.101" y2="0" stroke="green" />
<line x1="796.101" y1="0" x2="840.423" y2="403.09" stroke="green" />
<line x1="840.423" y1="403.09" x2="794.109" y2="505.366" stroke="green" />
<line x1="794.109" y1="505.366" x2="604.647" y2="634.696" stroke="green" />
<line x1="604.647" y1="634.696" x2="947.498" y2="594.791" stroke="green" />
<circle cx="796.101" cy="0" r="15" />
<circle cx="796.101" cy="0" r="15" />
<line x1="0" y1="47.3749" x2="947.498" y2="47.3749" stroke="red" />
<line x1="947.498" y1="594.791" x2="787.483" y2="945.767" stroke="green" />
<line x1="787.483" y1="945.767" x2="498.448" y2="961.85" stroke="green" />
<line x1="498.448" y1="961.85" x2="587.119" y2="1095.9" stroke="green" />
<line x1="587.119" y1="1095.9" x2="250.003" y2="1167.8" stroke="green" />
<line x1="250.003" y1="1167.8" x2="526.67" y2="877.541" stroke="green" />
<line x1="526.67" y1="877.541" x2="249.203" y2="745.053" stroke="green" />
<line x1="249.203" y1="745.053" x2="550.98" y2="298.915" stroke="green" />
<line x1="550.98" y1="298.915" x2="0" y2="338.315" stroke="green" />
<line x1="0" y1="338.315" x2="333.265" y2="197.059" stroke="green" />
<line x1="333.265" y1="197.059" x2="349.628" y2="225.227" stroke="green" />
<line x1="349.628" y1="225.227" x2="796.101" y2="0" stroke="green" />
<line x1="796.101" y1="0" x2="840.423" y2="403.09" stroke="green" />
<line x1="840.423" y1="403.09" x2="794.109" y2="505.366" stroke="green" />
<line x1="794.109" y1="505.366" x2="604.647" y2="634.696" stroke="green" />
<line x1="604.647" y1="634.696" x2="947.498" y2="594.791" stroke="green" />
<circle cx="702.188" cy="47.3749" r="15" />
<circle cx="801.31" cy="47.3749" r="15" />
<line x1="0" y1="94.7498" x2="947.498" y2="94.7498" stroke="red" />
<line x1="947.498" y1="594.791" x2="787.483" y2="945.767" stroke="green" />
<line x1="787.483" y1="945.767" x2="498.448" y2="961.85" stroke="green" />
<line x1="498.448" y1="961.85" x2="587.119" y2="1095.9" stroke="green" />
<line x1="587.119" y1="1095.9" x2="250.003" y2="1167.8" stroke="green" />
<line x1="250.003" y1="1167.8" x2="526.67" y2="877.541" stroke="green" />
<line x1="526.67" y1="877.541" x2="249.203" y2="745.053" stroke="green" />
<line x1="249.203" y1="745.053" x2="550.98" y2="298.915" stroke="green" />
<line x1="550.98" y1="298.915" x2="0" y2="338.315" stroke="green" />
<line x1="0" y1="338.315" x2="333.265" y2="197.059" stroke="green" />
<line x1="333.265" y1="197.059" x2="349.628" y2="225.227" stroke="green" />
<line x1="349.628" y1="225.227" x2="796.101" y2="0" stroke="green" />
<line x1="796.101" y1="0" x2="840.423" y2="403.09" stroke="green" />
<line x1="840.423" y1="403.09" x2="794.109" y2="505.366" stroke="green" />
<line x1="794.109" y1="505.366" x2="604.647" y2="634.696" stroke="green" />
<line x1="604.647" y1="634.696" x2="947.498" y2="594.791" stroke="green" />
<circle cx="608.276" cy="94.7498" r="15" />
<circle cx="806.519" cy="94.7498" r="15" />
<line x1="0" y1="142.125" x2="947.498" y2="142.125" stroke="red" />
<line x1="947.498" y1="594.791" x2="787.483" y2="945.767" stroke="green" />
<line x1="787.483" y1="945.767" x2="498.448" y2="961.85" stroke="green" />
<line x1="498.448" y1="961.85" x2="587.119" y2="1095.9" stroke="green" />
<line x1="587.119" y1="1095.9" x2="250.003" y2="1167.8" stroke="green" />
<line x1="250.003" y1="1167.8" x2="526.67" y2="877.541" stroke="green" />
<line x1="526.67" y1="877.541" x2="249.203" y2="745.053" stroke="green" />
<line x1="249.203" y1="745.053" x2="550.98" y2="298.915" stroke="green" />
<line x1="550.98" y1="298.915" x2="0" y2="338.315" stroke="green" />
<line x1="0" y1="338.315" x2="333.265" y2="197.059" stroke="green" />
<line x1="333.265" y1="197.059" x2="349.628" y2="225.227" stroke="green" />
<line x1="349.628" y1="225.227" x2="796.101" y2="0" stroke="green" />
<line x1="796.101" y1="0" x2="840.423" y2="403.09" stroke="green" />
<line x1="840.423" y1="403.09" x2="794.109" y2="505.366" stroke="green" />
<line x1="794.109" y1="505.366" x2="604.647" y2="634.696" stroke="green" />
<line x1="604.647" y1="634.696" x2="947.498" y2="594.791" stroke="green" />
<circle cx="514.363" cy="142.125" r="15" />
<circle cx="811.728" cy="142.125" r="15" />
<line x1="0" y1="189.5" x2="947.498" y2="189.5" stroke="red" />
<line x1="947.498" y1="594.791" x2="787.483" y2="945.767" stroke="green" />
<line x1="787.483" y1="945.767" x2="498.448" y2="961.85" stroke="green" />
<line x1="498.448" y1="961.85" x2="587.119" y2="1095.9" stroke="green" />
<line x1="587.119" y1="1095.9" x2="250.003" y2="1167.8" stroke="green" />
<line x1="250.003" y1="1167.8" x2="526.67" y2="877.541" stroke="green" />
<line x1="526.67" y1="877.541" x2="249.203" y2="745.053" stroke="green" />
<line x1="249.203" y1="745.053" x2="550.98" y2="298.915" stroke="green" />
<line x1="550.98" y1="298.915" x2="0" y2="338.315" stroke="green" />
<line x1="0" y1="338.315" x2="333.265" y2="197.059" stroke="green" />
<line x1="333.265" y1="197.059" x2="349.628" y2="225.227" stroke="green" />
<line x1="349.628" y1="225.227" x2="796.101" y2="0" stroke="green" />
<line x1="796.101" y1="0" x2="840.423" y2="403.09" stroke="green" />
<line x1="840.423" y1="403.09" x2="794.109" y2="505.366" stroke="green" />
<line x1="794.109" y1="505.366" x2="604.647" y2="634.696" stroke="green" />
<line x1="604.647" y1="634.696" x2="947.498" y2="594.791" stroke="green" />
<circle cx="420.451" cy="189.5" r="15" />
<circle cx="816.937" cy="189.5" r="15" />
<line x1="0" y1="236.874" x2="947.498" y2="236.874" stroke="red" />
<line x1="947.498" y1="594.791" x2="787.483" y2="945.767" stroke="green" />
<line x1="787.483" y1="945.767" x2="498.448" y2="961.85" stroke="green" />
<line x1="498.448" y1="961.85" x2="587.119" y2="1095.9" stroke="green" />
<line x1="587.119" y1="1095.9" x2="250.003" y2="1167.8" stroke="green" />
<line x1="250.003" y1="1167.8" x2="526.67" y2="877.541" stroke="green" />
<line x1="526.67" y1="877.541" x2="249.203" y2="745.053" stroke="green" />
<line x1="249.203" y1="745.053" x2="550.98" y2="298.915" stroke="green" />
<line x1="550.98" y1="298.915" x2="0" y2="338.315" stroke="green" />
<line x1="0" y1="338.315" x2="333.265" y2="197.059" stroke="green" />
<line x1="333.265" y1="197.059" x2="349.628" y2="225.227" stroke="green" />
<line x1="349.628" y1="225.227" x2="796.101" y2="0" stroke="green" />
<line x1="796.101" y1="0" x2="840.423" y2="403.09" stroke="green" />
<line x1="840.423" y1="403.09" x2="794.109" y2="505.366" stroke="green" />
<line x1="794.109" y1="505.366" x2="604.647" y2="634.696" stroke="green" />
<line x1="604.647" y1="634.696" x2="947.498" y2="594.791" stroke="green" />
<circle cx="239.328" cy="236.874" r="15" />
<circle cx="822.146" cy="236.874" r="15" />
<line x1="0" y1="284.249" x2="947.498" y2="284.249" stroke="red" />
<line x1="947.498" y1="594.791" x2="787.483" y2="945.767" stroke="green" />
<line x1="787.483" y1="945.767" x2="498.448" y2="961.85" stroke="green" />
<line x1="498.448" y1="961.85" x2="587.119" y2="1095.9" stroke="green" />
<line x1="587.119" y1="1095.9" x2="250.003" y2="1167.8" stroke="green" />
<line x1="250.003" y1="1167.8" x2="526.67" y2="877.541" stroke="green" />
<line x1="526.67" y1="877.541" x2="249.203" y2="745.053" stroke="green" />
<line x1="249.203" y1="745.053" x2="550.98" y2="298.915" stroke="green" />
<line x1="550.98" y1="298.915" x2="0" y2="338.315" stroke="green" />
<line x1="0" y1="338.315" x2="333.265" y2="197.059" stroke="green" />
<line x1="333.265" y1="197.059" x2="349.628" y2="225.227" stroke="green" />
<line x1="349.628" y1="225.227" x2="796.101" y2="0" stroke="green" />
<line x1="796.101" y1="0" x2="840.423" y2="403.09" stroke="green" />
<line x1="840.423" y1="403.09" x2="794.109" y2="505.366" stroke="green" />
<line x1="794.109" y1="505.366" x2="604.647" y2="634.696" stroke="green" />
<line x1="604.647" y1="634.696" x2="947.498" y2="594.791" stroke="green" />
<circle cx="127.556" cy="284.249" r="15" />
<circle cx="827.356" cy="284.249" r="15" />
<line x1="0" y1="331.624" x2="947.498" y2="331.624" stroke="red" />
<line x1="947.498" y1="594.791" x2="787.483" y2="945.767" stroke="green" />
<line x1="787.483" y1="945.767" x2="498.448" y2="961.85" stroke="green" />
<line x1="498.448" y1="961.85" x2="587.119" y2="1095.9" stroke="green" />
<line x1="587.119" y1="1095.9" x2="250.003" y2="1167.8" stroke="green" />
<line x1="250.003" y1="1167.8" x2="526.67" y2="877.541" stroke="green" />
<line x1="526.67" y1="877.541" x2="249.203" y2="745.053" stroke="green" />
<line x1="249.203" y1="745.053" x2="550.98" y2="298.915" stroke="green" />
<line x1="550.98" y1="298.915" x2="0" y2="338.315" stroke="green" />
<line x1="0" y1="338.315" x2="333.265" y2="197.059" stroke="green" />
<line x1="333.265" y1="197.059" x2="349.628" y2="225.227" stroke="green" />
<line x1="349.628" y1="225.227" x2="796.101" y2="0" stroke="green" />
<line x1="796.101" y1="0" x2="840.423" y2="403.09" stroke="green" />
<line x1="840.423" y1="403.09" x2="794.109" y2="505.366" stroke="green" />
<line x1="794.109" y1="505.366" x2="604.647" y2="634.696" stroke="green" />
<line x1="604.647" y1="634.696" x2="947.498" y2="594.791" stroke="green" />
<circle cx="528.855" cy="331.624" r="15" />
<circle cx="93.5621" cy="331.624" r="15" />
<circle cx="15.7849" cy="331.624" r="15" />
<circle cx="832.565" cy="331.624" r="15" />
<line x1="0" y1="378.999" x2="947.498" y2="378.999" stroke="red" />
<line x1="947.498" y1="594.791" x2="787.483" y2="945.767" stroke="green" />
<line x1="787.483" y1="945.767" x2="498.448" y2="961.85" stroke="green" />
<line x1="498.448" y1="961.85" x2="587.119" y2="1095.9" stroke="green" />
<line x1="587.119" y1="1095.9" x2="250.003" y2="1167.8" stroke="green" />
<line x1="250.003" y1="1167.8" x2="526.67" y2="877.541" stroke="green" />
<line x1="526.67" y1="877.541" x2="249.203" y2="745.053" stroke="green" />
<line x1="249.203" y1="745.053" x2="550.98" y2="298.915" stroke="green" />
<line x1="550.98" y1="298.915" x2="0" y2="338.315" stroke="green" />
<line x1="0" y1="338.315" x2="333.265" y2="197.059" stroke="green" />
<line x1="333.265" y1="197.059" x2="349.628" y2="225.227" stroke="green" />
<line x1="349.628" y1="225.227" x2="796.101" y2="0" stroke="green" />
<line x1="796.101" y1="0" x2="840.423" y2="403.09" stroke="green" />
<line x1="840.423" y1="403.09" x2="794.109" y2="505.366" stroke="green" />
<line x1="794.109" y1="505.366" x2="604.647" y2="634.696" stroke="green" />
<line x1="604.647" y1="634.696" x2="947.498" y2="594.791" stroke="green" />
<circle cx="496.81" cy="378.999" r="15" />
<circle cx="837.774" cy="378.999" r="15" />
<line x1="0" y1="426.374" x2="947.498" y2="426.374" stroke="red" />
<line x1="947.498" y1="594.791" x2="787.483" y2="945.767" stroke="green" />
<line x1="787.483" y1="945.767" x2="498.448" y2="961.85" stroke="green" />
<line x1="498.448" y1="961.85" x2="587.119" y2="1095.9" stroke="green" />
<line x1="587.119" y1="1095.9" x2="250.003" y2="1167.8" stroke="green" />
<line x1="250.003" y1="1167.8" x2="526.67" y2="877.541" stroke="green" />
<line x1="526.67" y1="877.541" x2="249.203" y2="745.053" stroke="green" />
<line x1="249.203" y1="745.053" x2="550.98" y2="298.915" stroke="green" />
<line x1="550.98" y1="298.915" x2="0" y2="338.315" stroke="green" />
<line x1="0" y1="338.315" x2="333.265" y2="197.059" stroke="green" />
<line x1="333.265" y1="197.059" x2="349.628" y2="225.227" stroke="green" />
<line x1="349.628" y1="225.227" x2="796.101" y2="0" stroke="green" />
<line x1="796.101" y1="0" x2="840.423" y2="403.09" stroke="green" />
<line x1="840.423" y1="403.09" x2="794.109" y2="505.366" stroke="green" />
<line x1="794.109" y1="505.366" x2="604.647" y2="634.696" stroke="green" />
<line x1="604.647" y1="634.696" x2="947.498" y2="594.791" stroke="green" />
<circle cx="464.764" cy="426.374" r="15" />
<circle cx="829.879" cy="426.374" r="15" />
<line x1="0" y1="473.749" x2="947.498" y2="473.749" stroke="red" />
<line x1="947.498" y1="594.791" x2="787.483" y2="945.767" stroke="green" />
<line x1="787.483" y1="945.767" x2="498.448" y2="961.85" stroke="green" />
<line x1="498.448" y1="961.85" x2="587.119" y2="1095.9" stroke="green" />
<line x1="587.119" y1="1095.9" x2="250.003" y2="1167.8" stroke="green" />
<line x1="250.003" y1="1167.8" x2="526.67" y2="877.541" stroke="green" />
<line x1="526.67" y1="877.541" x2="249.203" y2="745.053" stroke="green" />
<line x1="249.203" y1="745.053" x2="550.98" y2="298.915" stroke="green" />
<line x1="550.98" y1="298.915" x2="0" y2="338.315" stroke="green" />
<line x1="0" y1="338.315" x2="333.265" y2="197.059" stroke="green" />
<line x1="333.265" y1="197.059" x2="349.628" y2="225.227" stroke="green" />
<line x1="349.628" y1="225.227" x2="796.101" y2="0" stroke="green" />
<line x1="796.101" y1="0" x2="840.423" y2="403.09" stroke="green" />
<line x1="840.423" y1="403.09" x2="794.109" y2="505.366" stroke="green" />
<line x1="794.109" y1="505.366" x2="604.647" y2="634.696" stroke="green" />
<line x1="604.647" y1="634.696" x2="947.498" y2="594.791" stroke="green" />
<circle cx="432.719" cy="473.749" r="15" />
<circle cx="808.426" cy="473.749" r="15" />
<line x1="0" y1="521.124" x2="947.498" y2="521.124" stroke="red" />
<line x1="947.498" y1="594.791" x2="787.483" y2="945.767" stroke="green" />
<line x1="787.483" y1="945.767" x2="498.448" y2="961.85" stroke="green" />
<line x1="498.448" y1="961.85" x2="587.119" y2="1095.9" stroke="green" />
<line x1="587.119" y1="1095.9" x2="250.003" y2="1167.8" stroke="green" />
<line x1="250.003" y1="1167.8" x2="526.67" y2="877.541" stroke="green" />
<line x1="526.67" y1="877.541" x2="249.203" y2="745.053" stroke="green" />
<line x1="249.203" y1="745.053" x2="550.98" y2="298.915" stroke="green" />
<line x1="550.98" y1="298.915" x2="0" y2="338.315" stroke="green" />
<line x1="0" y1="338.315" x2="333.265" y2="197.059" stroke="green" />
<line x1="333.265" y1="197.059" x2="349.628" y2="225.227" stroke="green" />
<line x1="349.628" y1="225.227" x2="796.101" y2="0" stroke="green" />
<line x1="796.101" y1="0" x2="840.423" y2="403.09" stroke="green" />
<line x1="840.423" y1="403.09" x2="794.109" y2="505.366" stroke="green" />
<line x1="794.109" y1="505.366" x2="604.647" y2="634.696" stroke="green" />
<line x1="604.647" y1="634.696" x2="947.498" y2="594.791" stroke="green" />
<circle cx="400.674" cy="521.124" r="15" />
<circle cx="771.024" cy="521.124" r="15" />
<line x1="0" y1="568.499" x2="947.498" y2="568.499" stroke="red" />
<line x1="947.498" y1="594.791" x2="787.483" y2="945.767" stroke="green" />
<line x1="787.483" y1="945.767" x2="498.448" y2="961.85" stroke="green" />
<line x1="498.448" y1="961.85" x2="587.119" y2="1095.9" stroke="green" />
<line x1="587.119" y1="1095.9" x2="250.003" y2="1167.8" stroke="green" />
<line x1="250.003" y1="1167.8" x2="526.67" y2="877.541" stroke="green" />
<line x1="526.67" y1="877.541" x2="249.203" y2="745.053" stroke="green" />
<line x1="249.203" y1="745.053" x2="550.98" y2="298.915" stroke="green" />
<line x1="550.98" y1="298.915" x2="0" y2="338.315" stroke="green" />
<line x1="0" y1="338.315" x2="333.265" y2="197.059" stroke="green" />
<line x1="333.265" y1="197.059" x2="349.628" y2="225.227" stroke="green" />
<line x1="349.628" y1="225.227" x2="796.101" y2="0" stroke="green" />
<line x1="796.101" y1="0" x2="840.423" y2="403.09" stroke="green" />
<line x1="840.423" y1="403.09" x2="794.109" y2="505.366" stroke="green" />
<line x1="794.109" y1="505.366" x2="604.647" y2="634.696" stroke="green" />
<line x1="604.647" y1="634.696" x2="947.498" y2="594.791" stroke="green" />
<circle cx="368.628" cy="568.499" r="15" />
<circle cx="701.622" cy="568.499" r="15" />
<line x1="0" y1="615.874" x2="947.498" y2="615.874" stroke="red" />
<line x1="947.498" y1="594.791" x2="787.483" y2="945.767" stroke="green" />
<line x1="787.483" y1="945.767" x2="498.448" y2="961.85" stroke="green" />
<line x1="498.448" y1="961.85" x2="587.119" y2="1095.9" stroke="green" />
<line x1="587.119" y1="1095.9" x2="250.003" y2="1167.8" stroke="green" />
<line x1="250.003" y1="1167.8" x2="526.67" y2="877.541" stroke="green" />
<line x1="526.67" y1="877.541" x2="249.203" y2="745.053" stroke="green" />
<line x1="249.203" y1="745.053" x2="550.98" y2="298.915" stroke="green" />
<line x1="550.98" y1="298.915" x2="0" y2="338.315" stroke="green" />
<line x1="0" y1="338.315" x2="333.265" y2="197.059" stroke="green" />
<line x1="333.265" y1="197.059" x2="349.628" y2="225.227" stroke="green" />
<line x1="349.628" y1="225.227" x2="796.101" y2="0" stroke="green" />
<line x1="796.101" y1="0" x2="840.423" y2="403.09" stroke="green" />
<line x1="840.423" y1="403.09" x2="794.109" y2="505.366" stroke="green" />
<line x1="794.109" y1="505.366" x2="604.647" y2="634.696" stroke="green" />
<line x1="604.647" y1="634.696" x2="947.498" y2="594.791" stroke="green" />
<circle cx="937.886" cy="615.874" r="15" />
<circle cx="336.583" cy="615.874" r="15" />
<circle cx="632.221" cy="615.874" r="15" />
<circle cx="766.365" cy="615.874" r="15" />
<line x1="0" y1="663.248" x2="947.498" y2="663.248" stroke="red" />
<line x1="947.498" y1="594.791" x2="787.483" y2="945.767" stroke="green" />
<line x1="787.483" y1="945.767" x2="498.448" y2="961.85" stroke="green" />
<line x1="498.448" y1="961.85" x2="587.119" y2="1095.9" stroke="green" />
<line x1="587.119" y1="1095.9" x2="250.003" y2="1167.8" stroke="green" />
<line x1="250.003" y1="1167.8" x2="526.67" y2="877.541" stroke="green" />
<line x1="526.67" y1="877.541" x2="249.203" y2="745.053" stroke="green" />
<line x1="249.203" y1="745.053" x2="550.98" y2="298.915" stroke="green" />
<line x1="550.98" y1="298.915" x2="0" y2="338.315" stroke="green" />
<line x1="0" y1="338.315" x2="333.265" y2="197.059" stroke="green" />
<line x1="333.265" y1="197.059" x2="349.628" y2="225.227" stroke="green" />
<line x1="349.628" y1="225.227" x2="796.101" y2="0" stroke="green" />
<line x1="796.101" y1="0" x2="840.423" y2="403.09" stroke="green" />
<line x1="840.423" y1="403.09" x2="794.109" y2="505.366" stroke="green" />
<line x1="794.109" y1="505.366" x2="604.647" y2="634.696" stroke="green" />
<line x1="604.647" y1="634.696" x2="947.498" y2="594.791" stroke="green" />
<circle cx="916.287" cy="663.248" r="15" />
<circle cx="304.537" cy="663.248" r="15" />
<line x1="0" y1="710.623" x2="947.498" y2="710.623" stroke="red" />
<line x1="947.498" y1="594.791" x2="787.483" y2="945.767" stroke="green" />
<line x1="787.483" y1="945.767" x2="498.448" y2="961.85" stroke="green" />
<line x1="498.448" y1="961.85" x2="587.119" y2="1095.9" stroke="green" />
<line x1="587.119" y1="1095.9" x2="250.003" y2="1167.8" stroke="green" />
<line x1="250.003" y1="1167.8" x2="526.67" y2="877.541" stroke="green" />
<line x1="526.67" y1="877.541" x2="249.203" y2="745.053" stroke="green" />
<line x1="249.203" y1="745.053" x2="550.98" y2="298.915" stroke="green" />
<line x1="550.98" y1="298.915" x2="0" y2="338.315" stroke="green" />
<line x1="0" y1="338.315" x2="333.265" y2="197.059" stroke="green" />
<line x1="333.265" y1="197.059" x2="349.628" y2="225.227" stroke="green" />
<line x1="349.628" y1="225.227" x2="796.101" y2="0" stroke="green" />
<line x1="796.101" y1="0" x2="840.423" y2="403.09" stroke="green" />
<line x1="840.423" y1="403.09" x2="794.109" y2="505.366" stroke="green" />
<line x1="794.109" y1="505.366" x2="604.647" y2="634.696" stroke="green" />
<line x1="604.647" y1="634.696" x2="947.498" y2="594.791" stroke="green" />
<circle cx="894.688" cy="710.623" r="15" />
<circle cx="272.492" cy="710.623" r="15" />
<line x1="0" y1="757.998" x2="947.498" y2="757.998" stroke="red" />
<line x1="947.498" y1="594.791" x2="787.483" y2="945.767" stroke="green" />
<line x1="787.483" y1="945.767" x2="498.448" y2="961.85" stroke="green" />
<line x1="498.448" y1="961.85" x2="587.119" y2="1095.9" stroke="green" />
<line x1="587.119" y1="1095.9" x2="250.003" y2="1167.8" stroke="green" />
<line x1="250.003" y1="1167.8" x2="526.67" y2="877.541" stroke="green" />
<line x1="526.67" y1="877.541" x2="249.203" y2="745.053" stroke="green" />
<line x1="249.203" y1="745.053" x2="550.98" y2="298.915" stroke="green" />
<line x1="550.98" y1="298.915" x2="0" y2="338.315" stroke="green" />
<line x1="0" y1="338.315" x2="333.265" y2="197.059" stroke="green" />
<line x1="333.265" y1="197.059" x2="349.628" y2="225.227" stroke="green" />
<line x1="349.628" y1="225.227" x2="796.101" y2="0" stroke="green" />
<line x1="796.101" y1="0" x2="840.423" y2="403.09" stroke="green" />
<line x1="840.423" y1="403.09" x2="794.109" y2="505.366" stroke="green" />
<line x1="794.109" y1="505.366" x2="604.647" y2="634.696" stroke="green" />
<line x1="604.647" y1="634.696" x2="947.498" y2="594.791" stroke="green" />
<circle cx="873.09" cy="757.998" r="15" />
<circle cx="276.314" cy="757.998" r="15" />
<line x1="0" y1="805.373" x2="947.498" y2="805.373" stroke="red" />
<line x1="947.498" y1="594.791" x2="787.483" y2="945.767" stroke="green" />
<line x1="787.483" y1="945.767" x2="498.448" y2="961.85" stroke="green" />
<line x1="498.448" y1="961.85" x2="587.119" y2="1095.9" stroke="green" />
<line x1="587.119" y1="1095.9" x2="250.003" y2="1167.8" stroke="green" />
<line x1="250.003" y1="1167.8" x2="526.67" y2="877.541" stroke="green" />
<line x1="526.67" y1="877.541" x2="249.203" y2="745.053" stroke="green" />
<line x1="249.203" y1="745.053" x2="550.98" y2="298.915" stroke="green" />
<line x1="550.98" y1="298.915" x2="0" y2="338.315" stroke="green" />
<line x1="0" y1="338.315" x2="333.265" y2="197.059" stroke="green" />
<line x1="333.265" y1="197.059" x2="349.628" y2="225.227" stroke="green" />
<line x1="349.628" y1="225.227" x2="796.101" y2="0" stroke="green" />
<line x1="796.101" y1="0" x2="840.423" y2="403.09" stroke="green" />
<line x1="840.423" y1="403.09" x2="794.109" y2="505.366" stroke="green" />
<line x1="794.109" y1="505.366" x2="604.647" y2="634.696" stroke="green" />
<line x1="604.647" y1="634.696" x2="947.498" y2="594.791" stroke="green" />
<circle cx="851.491" cy="805.373" r="15" />
<circle cx="375.53" cy="805.373" r="15" />
<line x1="0" y1="852.748" x2="947.498" y2="852.748" stroke="red" />
<line x1="947.498" y1="594.791" x2="787.483" y2="945.767" stroke="green" />
<line x1="787.483" y1="945.767" x2="498.448" y2="961.85" stroke="green" />
<line x1="498.448" y1="961.85" x2="587.119" y2="1095.9" stroke="green" />
<line x1="587.119" y1="1095.9" x2="250.003" y2="1167.8" stroke="green" />
<line x1="250.003" y1="1167.8" x2="526.67" y2="877.541" stroke="green" />
<line x1="526.67" y1="877.541" x2="249.203" y2="745.053" stroke="green" />
<line x1="249.203" y1="745.053" x2="550.98" y2="298.915" stroke="green" />
<line x1="550.98" y1="298.915" x2="0" y2="338.315" stroke="green" />
<line x1="0" y1="338.315" x2="333.265" y2="197.059" stroke="green" />
<line x1="333.265" y1="197.059" x2="349.628" y2="225.227" stroke="green" />
<line x1="349.628" y1="225.227" x2="796.101" y2="0" stroke="green" />
<line x1="796.101" y1="0" x2="840.423" y2="403.09" stroke="green" />
<line x1="840.423" y1="403.09" x2="794.109" y2="505.366" stroke="green" />
<line x1="794.109" y1="505.366" x2="604.647" y2="634.696" stroke="green" />
<line x1="604.647" y1="634.696" x2="947.498" y2="594.791" stroke="green" />
<circle cx="829.892" cy="852.748" r="15" />
<circle cx="474.745" cy="852.748" r="15" />
<line x1="0" y1="900.123" x2="947.498" y2="900.123" stroke="red" />
<line x1="947.498" y1="594.791" x2="787.483" y2="945.767" stroke="green" />
<line x1="787.483" y1="945.767" x2="498.448" y2="961.85" stroke="green" />
<line x1="498.448" y1="961.85" x2="587.119" y2="1095.9" stroke="green" />
<line x1="587.119" y1="1095.9" x2="250.003" y2="1167.8" stroke="green" />
<line x1="250.003" y1="1167.8" x2="526.67" y2="877.541" stroke="green" />
<line x1="526.67" y1="877.541" x2="249.203" y2="745.053" stroke="green" />
<line x1="249.203" y1="745.053" x2="550.98" y2="298.915" stroke="green" />
<line x1="550.98" y1="298.915" x2="0" y2="338.315" stroke="green" />
<line x1="0" y1="338.315" x2="333.265" y2="197.059" stroke="green" />
<line x1="333.265" y1="197.059" x2="349.628" y2="225.227" stroke="green" />
<line x1="349.628" y1="225.227" x2="796.101" y2="0" stroke="green" />
<line x1="796.101" y1="0" x2="840.423" y2="403.09" stroke="green" />
<line x1="840.423" y1="403.09" x2="794.109" y2="505.366" stroke="green" />
<line x1="794.109" y1="505.366" x2="604.647" y2="634.696" stroke="green" />
<line x1="604.647" y1="634.696" x2="947.498" y2="594.791" stroke="green" />
<circle cx="808.293" cy="900.123" r="15" />
<circle cx="505.146" cy="900.123" r="15" />
<line x1="0" y1="947.498" x2="947.498" y2="947.498" stroke="red" />
<line x1="947.498" y1="594.791" x2="787.483" y2="945.767" stroke="green" />
<line x1="787.483" y1="945.767" x2="498.448" y2="961.85" stroke="green" />
<line x1="498.448" y1="961.85" x2="587.119" y2="1095.9" stroke="green" />
<line x1="587.119" y1="1095.9" x2="250.003" y2="1167.8" stroke="green" />
<line x1="250.003" y1="1167.8" x2="526.67" y2="877.541" stroke="green" />
<line x1="526.67" y1="877.541" x2="249.203" y2="745.053" stroke="green" />
<line x1="249.203" y1="745.053" x2="550.98" y2="298.915" stroke="green" />
<line x1="550.98" y1="298.915" x2="0" y2="338.315" stroke="green" />
<line x1="0" y1="338.315" x2="333.265" y2="197.059" stroke="green" />
<line x1="333.265" y1="197.059" x2="349.628" y2="225.227" stroke="green" />
<line x1="349.628" y1="225.227" x2="796.101" y2="0" stroke="green" />
<line x1="796.101" y1="0" x2="840.423" y2="403.09" stroke="green" />
<line x1="840.423" y1="403.09" x2="794.109" y2="505.366" stroke="green" />
<line x1="794.109" y1="505.366" x2="604.647" y2="634.696" stroke="green" />
<line x1="604.647" y1="634.696" x2="947.498" y2="594.791" stroke="green" />
<circle cx="756.372" cy="947.498" r="15" />
<circle cx="459.989" cy="947.498" r="15" />
<line x1="0" y1="994.873" x2="947.498" y2="994.873" stroke="red" />
<line x1="947.498" y1="594.791" x2="787.483" y2="945.767" stroke="green" />
<line x1="787.483" y1="945.767" x2="498.448" y2="961.85" stroke="green" />
<line x1="498.448" y1="961.85" x2="587.119" y2="1095.9" stroke="green" />
<line x1="587.119" y1="1095.9" x2="250.003" y2="1167.8" stroke="green" />
<line x1="250.003" y1="1167.8" x2="526.67" y2="877.541" stroke="green" />
<line x1="526.67" y1="877.541" x2="249.203" y2="745.053" stroke="green" />
<line x1="249.203" y1="745.053" x2="550.98" y2="298.915" stroke="green" />
<line x1="550.98" y1="298.915" x2="0" y2="338.315" stroke="green" />
<line x1="0" y1="338.315" x2="333.265" y2="197.059" stroke="green" />
<line x1="333.265" y1="197.059" x2="349.628" y2="225.227" stroke="green" />
<line x1="349.628" y1="225.227" x2="796.101" y2="0" stroke="green" />
<line x1="796.101" y1="0" x2="840.423" y2="403.09" stroke="green" />
<line x1="840.423" y1="403.09" x2="794.109" y2="505.366" stroke="green" />
<line x1="794.109" y1="505.366" x2="604.647" y2="634.696" stroke="green" />
<line x1="604.647" y1="634.696" x2="947.498" y2="594.791" stroke="green" />
<circle cx="520.291" cy="994.873" r="15" />
<circle cx="414.833" cy="994.873" r="15" />
<line x1="0" y1="1042.25" x2="947.498" y2="1042.25" stroke="red" />
<line x1="947.498" y1="594.791" x2="787.483" y2="945.767" stroke="green" />
<line x1="787.483" y1="945.767" x2="498.448" y2="961.85" stroke="green" />
<line x1="498.448" y1="961.85" x2="587.119" y2="1095.9" stroke="green" />
<line x1="587.119" y1="1095.9" x2="250.003" y2="1167.8" stroke="green" />
<line x1="250.003" y1="1167.8" x2="526.67" y2="877.541" stroke="green" />
<line x1="526.67" y1="877.541" x2="249.203" y2="745.053" stroke="green" />
<line x1="249.203" y1="745.053" x2="550.98" y2="298.915" stroke="green" />
<line x1="550.98" y1="298.915" x2="0" y2="338.315" stroke="green" />
<line x1="0" y1="338.315" x2="333.265" y2="197.059" stroke="green" />
<line x1="333.265" y1="197.059" x2="349.628" y2="225.227" stroke="green" />
<line x1="349.628" y1="225.227" x2="796.101" y2="0" stroke="green" />
<line x1="796.101" y1="0" x2="840.423" y2="403.09" stroke="green" />
<line x1="840.423" y1="403.09" x2="794.109" y2="505.366" stroke="green" />
<line x1="794.109" y1="505.366" x2="604.647" y2="634.696" stroke="green" />
<line x1="604.647" y1="634.696" x2="947.498" y2="594.791" stroke="green" />
<circle cx="551.627" cy="1042.25" r="15" />
<circle cx="369.677" cy="1042.25" r="15" />
<line x1="0" y1="1089.62" x2="947.498" y2="1089.62" stroke="red" />
<line x1="947.498" y1="594.791" x2="787.483" y2="945.767" stroke="green" />
<line x1="787.483" y1="945.767" x2="498.448" y2="961.85" stroke="green" />
<line x1="498.448" y1="961.85" x2="587.119" y2="1095.9" stroke="green" />
<line x1="587.119" y1="1095.9" x2="250.003" y2="1167.8" stroke="green" />
<line x1="250.003" y1="1167.8" x2="526.67" y2="877.541" stroke="green" />
<line x1="526.67" y1="877.541" x2="249.203" y2="745.053" stroke="green" />
<line x1="249.203" y1="745.053" x2="550.98" y2="298.915" stroke="green" />
<line x1="550.98" y1="298.915" x2="0" y2="338.315" stroke="green" />
<line x1="0" y1="338.315" x2="333.265" y2="197.059" stroke="green" />
<line x1="333.265" y1="197.059" x2="349.628" y2="225.227" stroke="green" />
<line x1="349.628" y1="225.227" x2="796.101" y2="0" stroke="green" />
<line x1="796.101" y1="0" x2="840.423" y2="403.09" stroke="green" />
<line x1="840.423" y1="403.09" x2="794.109" y2="505.366" stroke="green" />
<line x1="794.109" y1="505.366" x2="604.647" y2="634.696" stroke="green" />
<line x1="604.647" y1="634.696" x2="947.498" y2="594.791" stroke="green" />
<circle cx="582.964" cy="1089.62" r="15" />
<circle cx="324.521" cy="1089.62" r="15" />
<line x1="0" y1="1137" x2="947.498" y2="1137" stroke="red" />
<line x1="947.498" y1="594.791" x2="787.483" y2="945.767" stroke="green" />
<line x1="787.483" y1="945.767" x2="498.448" y2="961.85" stroke="green" />
<line x1="498.448" y1="961.85" x2="587.119" y2="1095.9" stroke="green" />
<line x1="587.119" y1="1095.9" x2="250.003" y2="1167.8" stroke="green" />
<line x1="250.003" y1="1167.8" x2="526.67" y2="877.541" stroke="green" />
<line x1="526.67" y1="877.541" x2="249.203" y2="745.053" stroke="green" />
<line x1="249.203" y1="745.053" x2="550.98" y2="298.915" stroke="green" />
<line x1="550.98" y1="298.915" x2="0" y2="338.315" stroke="green" />
<line x1="0" y1="338.315" x2="333.265" y2="197.059" stroke="green" />
<line x1="333.265" y1="197.059" x2="349.628" y2="225.227" stroke="green" />
<line x1="349.628" y1="225.227" x2="796.101" y2="0" stroke="green" />
<line x1="796.101" y1="0" x2="840.423" y2="403.09" stroke="green" />
<line x1="840.423" y1="403.09" x2="794.109" y2="505.366" stroke="green" />
<line x1="794.109" y1="505.366" x2="604.647" y2="634.696" stroke="green" />
<line x1="604.647" y1="634.696" x2="947.498" y2="594.791" stroke="green" />
<circle cx="394.438" cy="1137" r="15" />
<circle cx="279.364" cy="1137" r="15" />
</g>
</svg>
